<svg xmlns="http://www.w3.org/2000/svg" xmlns:xlink="http://www.w3.org/1999/xlink" fill="none" version="1.1" width="24" height="24" viewBox="0 0 24 24"><defs><clipPath id="master_svg0_1081_19122"><rect x="-0.75" y="-0.75" width="25.5" height="25.5" rx="0"/></clipPath></defs><g clip-path="url(#master_svg0_1081_19122)"><path d="M2,4.5L2,19.5C2,20.880699,3.1192851,22,4.5,22L20.5,22C21.880699,22,23,20.880699,23,19.5L23,12C23,11.4476995,22.552299,11,22,11C21.447701,11,21,11.4476995,21,12L21,19.5C21,19.77615,20.77615,20,20.5,20L4.5,20C4.2238598,20,4,19.77615,4,19.5L4,4.5C4,4.2238598,4.223855,4,4.5,4L12,4C12.5523,4,13,3.552285,13,3C13,2.44771504,12.5523,2,12,2L4.5,2C3.1192900999999997,2,2,3.1192851,2,4.5Z" fill="#333333" fill-opacity="1" style="mix-blend-mode:passthrough"/><path d="M18.00009999,3Q18.00010002,2.950764146,18.00970545,2.902474351Q18.01931089,2.85418455,18.03815264,2.80869657Q18.05699438,2.76320857,18.08434835,2.72227046Q18.11170232,2.68133235,18.14651734,2.64651734Q18.18133235,2.61170232,18.22227046,2.58434838Q18.26320857,2.55699441,18.30869657,2.53815266Q18.35418455,2.51931089,18.402474351,2.5097054500000002Q18.450764146,2.50010002,18.5,2.50009999Q18.549235854,2.50010002,18.597525649,2.5097054500000002Q18.64581545,2.51931089,18.69130343,2.53815264Q18.73679143,2.55699438,18.77772954,2.58434835Q18.81866765,2.61170232,18.85348266,2.64651734Q18.88829768,2.68133235,18.91565162,2.72227046Q18.94300559,2.76320857,18.96184734,2.80869657Q18.98068911,2.85418455,18.99029455,2.902474351Q18.99989998,2.950764146,18.99990001,3L19,3L19,9L18.99990001,9Q18.99989998,9.0492353,18.99029455,9.0975251Q18.98068911,9.145814900000001,18.96184736,9.191303300000001Q18.94300562,9.2367911,18.91565165,9.2777295Q18.88829768,9.318667399999999,18.85348266,9.3534827Q18.81866765,9.388297999999999,18.77772954,9.4156518Q18.73679143,9.4430056,18.69130343,9.461847299999999Q18.64581545,9.480689,18.597525649,9.490294500000001Q18.549235854,9.499899899999999,18.5,9.499899899999999Q18.450764146,9.499899899999999,18.402474351,9.490294500000001Q18.35418455,9.480689,18.30869657,9.4618468Q18.26320857,9.4430056,18.22227046,9.4156513Q18.18133235,9.388297099999999,18.14651734,9.3534822Q18.11170232,9.3186669,18.08434838,9.277729Q18.05699441,9.2367907,18.03815266,9.191302799999999Q18.01931089,9.145814900000001,18.00970545,9.0975251Q18.00010002,9.0492353,18.00009999,9L18,9L18,3L18.00009999,3Z" fill-rule="evenodd" fill="#333333" fill-opacity="1" style="mix-blend-mode:passthrough"/><path d="M18.5,3.70710683L20.6464467,5.8535533L20.6465173,5.8534827Q20.7168293,5.9237947,20.8086963,5.9618473000000005Q20.9005632,5.9999001,21,5.9999001Q21.049235799999998,5.9998999,21.0975256,5.9902945Q21.1458149,5.980689,21.1913028,5.9618471Q21.2367907,5.9430056,21.277729,5.9156513Q21.3186674,5.8882976,21.353482200000002,5.8534827Q21.3882971,5.8186674,21.4156508,5.7777293Q21.443004600000002,5.7367911,21.4618464,5.6913032999999995Q21.480688100000002,5.6458154,21.490294,5.5975256Q21.4998999,5.5492358,21.4998999,5.5Q21.4998999,5.4005637,21.4618473,5.3086967000000005Q21.423794700000002,5.216829300000001,21.3534827,5.1465173L21.3535533,5.1464465L18.8535533,2.64644659Q18.8187313,2.61162466,18.7777851,2.58426517Q18.7368386,2.55690575,18.6913414,2.53806025Q18.6458445,2.51921475,18.5975449,2.50960737Q18.5492454,2.5,18.4999998,2.5Q18.4507539,2.5,18.4024544,2.50960737Q18.3541551,2.51921475,18.3086579,2.53806025Q18.2631607,2.55690575,18.2222145,2.5842652Q18.181268199999998,2.61162466,18.1464465,2.64644659L15.64644659,5.1464465L15.64651734,5.1465173Q15.57620525,5.216829300000001,15.53815264,5.3086965Q15.50009999,5.4005637,15.50009999,5.5Q15.50010002,5.5492358,15.50970545,5.5975256Q15.51931089,5.6458154,15.53815264,5.6913032999999995Q15.55699438,5.7367911,15.58434835,5.7777294999999995Q15.61170232,5.8186674,15.64651734,5.8534827Q15.68133235,5.8882976,15.72227046,5.9156516Q15.76320857,5.9430056,15.80869657,5.9618471Q15.85418455,5.980689,15.902474351,5.9902945Q15.950764146,5.9998999,16,5.9999001Q16.099436328,5.9999001,16.19130352,5.9618475Q16.2831707,5.9237947,16.35348278,5.8534827L16.35355341,5.8535533L18.5,3.70710683Z" fill-rule="evenodd" fill="#333333" fill-opacity="1" style="mix-blend-mode:passthrough"/><path d="M10.75014997,13.5Q10.75014997,13.426146217,10.7645582,13.35371152Q10.77896631,13.28127682,10.80722892,13.21304482Q10.83549154,13.14481282,10.87652254,13.08340567Q10.91755348,13.02199849,10.96977597,12.96977597Q11.02199849,12.91755348,11.08340567,12.87652254Q11.14481282,12.83549154,11.21304482,12.80722892Q11.28127682,12.77896631,11.35371152,12.7645582Q11.426146217,12.75014997,11.5,12.75014997Q11.573853783,12.75014997,11.64628848,12.7645582Q11.71872318,12.77896631,11.78695518,12.80722892Q11.85518718,12.83549154,11.91659433,12.87652254Q11.97800151,12.91755348,12.03022403,12.96977597Q12.08244652,13.02199849,12.12347746,13.08340567Q12.16450846,13.14481282,12.19277108,13.21304482Q12.22103369,13.28127682,12.2354418,13.35371152Q12.24985003,13.426146217,12.24985003,13.5L12.25,13.5L12.25,17.5L12.24985003,17.5Q12.24985003,17.5738535,12.2354418,17.6462884Q12.22103369,17.7187233,12.19277108,17.786954899999998Q12.16450846,17.8551869,12.12347746,17.916594Q12.08244652,17.9780016,12.03022403,18.0302238Q11.97800151,18.0824461,11.91659433,18.123477Q11.85518718,18.1645079,11.78695518,18.192771Q11.71872318,18.2210336,11.64628848,18.2354422Q11.573853783,18.2498503,11.5,18.2498503Q11.426146217,18.2498503,11.35371152,18.2354417Q11.28127682,18.2210336,11.21304482,18.192771Q11.14481282,18.1645079,11.08340567,18.123477Q11.02199849,18.0824461,10.96977597,18.0302238Q10.91755348,17.9780016,10.87652254,17.916594Q10.83549154,17.8551869,10.80722892,17.786954899999998Q10.77896631,17.7187233,10.7645582,17.6462884Q10.75014997,17.5738535,10.75014997,17.5L10.75,17.5L10.75,13.5L10.75014997,13.5Z" fill-rule="evenodd" fill="#333333" fill-opacity="1" style="mix-blend-mode:passthrough"/><path d="M5.25014997,13.5Q5.25014997,13.426146217,5.2645582,13.35371152Q5.27896631,13.28127682,5.30722892,13.21304482Q5.33549154,13.14481282,5.37652254,13.08340567Q5.4175534800000005,13.02199849,5.46977597,12.96977597Q5.52199849,12.91755348,5.58340567,12.87652254Q5.64481282,12.83549154,5.71304482,12.80722892Q5.78127682,12.77896631,5.85371152,12.7645582Q5.926146217,12.75014997,6,12.75014997Q6.073853783,12.75014997,6.14628848,12.7645582Q6.21872318,12.77896631,6.28695518,12.80722892Q6.35518718,12.83549154,6.41659433,12.87652254Q6.47800151,12.91755348,6.53022403,12.96977597Q6.5824465199999995,13.02199849,6.62347746,13.08340567Q6.66450846,13.14481282,6.69277108,13.21304482Q6.72103369,13.28127682,6.7354418,13.35371152Q6.74985003,13.426146217,6.74985003,13.5L6.75,13.5L6.75,17.5L6.74985003,17.5Q6.74985003,17.5738535,6.7354418,17.6462884Q6.72103369,17.7187233,6.69277108,17.786954899999998Q6.66450846,17.8551869,6.62347746,17.916594Q6.5824465199999995,17.9780016,6.53022403,18.0302238Q6.47800151,18.0824461,6.41659433,18.123477Q6.35518718,18.1645079,6.28695518,18.192771Q6.21872318,18.2210336,6.14628848,18.2354422Q6.073853783,18.2498503,6,18.2498503Q5.926146217,18.2498503,5.85371152,18.2354417Q5.78127682,18.2210336,5.71304482,18.192771Q5.64481282,18.1645079,5.58340567,18.123477Q5.52199849,18.0824461,5.46977597,18.0302238Q5.4175534800000005,17.9780016,5.37652254,17.916594Q5.33549154,17.8551869,5.30722892,17.786954899999998Q5.27896631,17.7187233,5.2645582,17.6462884Q5.25014997,17.5738535,5.25014997,17.5L5.25,17.5L5.25,13.5L5.25014997,13.5Z" fill-rule="evenodd" fill="#333333" fill-opacity="1" style="mix-blend-mode:passthrough"/><path d="M17.75,14.25L19.5,14.25L19.5,14.24985003Q19.5738537,14.24985003,19.6462884,14.2354418Q19.718722800000002,14.22103369,19.7869549,14.19277108Q19.8551869,14.16450846,19.916594,14.12347746Q19.9780011,14.08244652,20.0302238,14.03022403Q20.0824461,13.97800151,20.123477,13.91659433Q20.1645079,13.85518718,20.1927705,13.78695518Q20.2210331,13.71872318,20.2354417,13.64628848Q20.2498498,13.573853783,20.24985,13.5Q20.2498498,13.426146217,20.2354417,13.35371152Q20.221033300000002,13.28127682,20.1927707,13.21304482Q20.1645079,13.14481282,20.1234772,13.08340567Q20.0824461,13.02199849,20.0302238,12.96977597Q19.9780011,12.91755348,19.916594,12.87652254Q19.8551869,12.83549154,19.7869549,12.80722892Q19.718722800000002,12.77896631,19.6462884,12.7645582Q19.5738537,12.75014997,19.5,12.75014997L19.5,12.75L17,12.75Q16.926131457,12.75,16.85368228,12.76441109Q16.78123312,12.77882212,16.71298748,12.8070904Q16.64474183,12.83535868,16.58332238,12.87639785Q16.52190292,12.91743702,16.46966994,12.96966994Q16.41743702,13.02190292,16.37639785,13.08332238Q16.33535868,13.14474183,16.3070904,13.21298748Q16.27882212,13.28123312,16.26441109,13.35368228Q16.25,13.426131457,16.25,13.5L16.25,17.5L16.25014997,17.5Q16.25014997,17.5738535,16.2645582,17.6462884Q16.27896631,17.7187233,16.30722892,17.786954899999998Q16.33549154,17.8551869,16.37652254,17.916594Q16.41755348,17.9780016,16.46977597,18.0302238Q16.52199849,18.0824461,16.58340567,18.123477Q16.64481282,18.1645079,16.71304482,18.192771Q16.78127682,18.2210336,16.85371152,18.2354422Q16.926146217,18.2498503,17,18.2498503Q17.073853783,18.2498503,17.14628848,18.2354417Q17.21872318,18.2210336,17.28695518,18.192771Q17.35518718,18.1645079,17.41659433,18.123477Q17.47800151,18.0824461,17.53022403,18.0302238Q17.58244652,17.9780016,17.62347746,17.916594Q17.66450846,17.8551869,17.69277108,17.786954899999998Q17.72103369,17.7187233,17.7354418,17.6462884Q17.74985003,17.5738535,17.74985003,17.5L17.75,17.5L17.75,14.25Z" fill-rule="evenodd" fill="#333333" fill-opacity="1" style="mix-blend-mode:passthrough"/><path d="M17,16.75L19.5,16.75L19.5,16.74985003Q19.5738537,16.74985003,19.6462884,16.7354418Q19.718722800000002,16.72103369,19.7869549,16.69277108Q19.8551869,16.66450846,19.916594,16.62347746Q19.9780011,16.58244652,20.0302238,16.53022403Q20.0824461,16.47800151,20.123477,16.41659433Q20.1645079,16.35518718,20.1927705,16.28695518Q20.2210331,16.21872318,20.2354417,16.14628848Q20.2498498,16.073853783,20.24985,16Q20.2498498,15.926146217,20.2354417,15.85371152Q20.221033300000002,15.78127682,20.1927707,15.71304482Q20.1645079,15.64481282,20.1234772,15.58340567Q20.0824461,15.52199849,20.0302238,15.46977597Q19.9780011,15.41755348,19.916594,15.37652254Q19.8551869,15.33549154,19.7869549,15.30722892Q19.718722800000002,15.27896631,19.6462884,15.2645582Q19.5738537,15.25014997,19.5,15.25014997L19.5,15.25L17,15.25L17,15.25014997Q16.926146217,15.25014997,16.85371152,15.2645582Q16.78127682,15.27896631,16.71304482,15.30722892Q16.64481282,15.33549154,16.58340567,15.37652254Q16.52199849,15.41755348,16.46977597,15.46977597Q16.41755348,15.52199849,16.37652254,15.58340567Q16.33549154,15.64481282,16.30722892,15.71304482Q16.27896631,15.78127682,16.2645582,15.85371152Q16.25014997,15.926146217,16.25014997,16Q16.25014997,16.073853783,16.2645582,16.14628848Q16.27896631,16.21872318,16.30722892,16.28695518Q16.33549154,16.35518718,16.37652254,16.41659433Q16.41755348,16.47800151,16.46977597,16.53022403Q16.52199849,16.58244652,16.58340567,16.62347746Q16.64481282,16.66450846,16.71304482,16.69277108Q16.78127682,16.72103369,16.85371152,16.7354418Q16.926146217,16.74985003,17,16.74985003L17,16.75Z" fill-rule="evenodd" fill="#333333" fill-opacity="1" style="mix-blend-mode:passthrough"/><path d="M7.75,15.25L6,15.25L6,15.25015Q5.926146217,15.25015,5.85371152,15.2645581Q5.78127682,15.2789662,5.71304482,15.3072288Q5.64481282,15.3354914,5.58340567,15.3765224Q5.52199849,15.4175534,5.46977597,15.4697759Q5.4175534800000005,15.521998400000001,5.37652254,15.5834055Q5.33549154,15.6448126,5.30722892,15.7130446Q5.27896631,15.7812767,5.2645582,15.8537114Q5.25014997,15.926146,5.25014997,16Q5.25014997,16.0738537,5.2645582,16.1462884Q5.27896631,16.218722800000002,5.30722892,16.2869549Q5.33549154,16.3551869,5.37652254,16.416594Q5.4175534800000005,16.4780011,5.46977597,16.5302238Q5.52199849,16.5824461,5.58340567,16.623477Q5.64481282,16.6645079,5.71304482,16.6927705Q5.78127682,16.7210331,5.85371152,16.7354417Q5.926146217,16.7498498,6,16.74985L6,16.75L7.75,16.75Q8.578423,16.75,9.1642115,16.164211299999998Q9.75,15.578423,9.75,14.75Q9.75,13.92157763,9.1642115,13.33578894Q8.5784228,12.75000012,7.75,12.75000012L6,12.75L6,12.75014997Q5.926146217,12.75014997,5.85371152,12.7645582Q5.78127682,12.77896631,5.71304482,12.80722892Q5.64481282,12.83549154,5.58340567,12.87652254Q5.52199849,12.91755348,5.46977597,12.96977597Q5.4175534800000005,13.02199849,5.37652254,13.08340567Q5.33549154,13.14481282,5.30722892,13.21304482Q5.27896631,13.28127682,5.2645582,13.35371152Q5.25014997,13.426146217,5.25014997,13.5Q5.25014997,13.573853783,5.2645582,13.64628848Q5.27896631,13.71872318,5.30722892,13.78695518Q5.33549154,13.85518718,5.37652254,13.91659433Q5.4175534800000005,13.97800151,5.46977597,14.03022403Q5.52199849,14.08244652,5.58340567,14.12347746Q5.64481282,14.16450846,5.71304482,14.19277108Q5.78127682,14.22103369,5.85371152,14.2354418Q5.926146217,14.24985003,6,14.24985003L6,14.25L7.7500002,14.25000018Q7.9571021,14.25000018,8.1035509,14.39644909Q8.25,14.5428982,8.25,14.75Q8.25,14.9571022,8.1035511,15.103551Q7.9571023,15.25,7.75,15.25Z" fill-rule="evenodd" fill="#333333" fill-opacity="1" style="mix-blend-mode:passthrough"/><path d="M12.5,16.75L11.5,16.75L11.5,16.75015Q11.426146217,16.75015,11.35371152,16.7645581Q11.28127682,16.778966,11.21304482,16.807228600000002Q11.14481282,16.8354912,11.08340567,16.8765221Q11.02199849,16.9175529,10.96977597,16.9697757Q10.91755348,17.0219979,10.87652254,17.083405Q10.83549154,17.144812299999998,10.80722892,17.2130444Q10.77896631,17.2812767,10.7645582,17.3537114Q10.75014997,17.426146,10.75014997,17.5Q10.75014997,17.5738535,10.7645582,17.6462884Q10.77896631,17.7187233,10.80722892,17.786954899999998Q10.83549154,17.8551869,10.87652254,17.916594Q10.91755348,17.9780016,10.96977597,18.0302238Q11.02199849,18.0824461,11.08340567,18.123477Q11.14481282,18.1645079,11.21304482,18.192771Q11.28127682,18.2210336,11.35371152,18.2354422Q11.426146217,18.2498503,11.5,18.2498503L11.5,18.25L12.5,18.25Q13.6390729,18.25,14.4445364,17.4445362Q15.25,16.6390724,15.25,15.4999999Q15.25,14.36092705,14.4445367,13.555463657Q13.639073400000001,12.75000012,12.5000006,12.75L11.5,12.75L11.5,12.75014997Q11.426146217,12.75014997,11.35371152,12.7645582Q11.28127682,12.77896631,11.21304482,12.80722892Q11.14481282,12.83549154,11.08340567,12.87652254Q11.02199849,12.91755348,10.96977597,12.96977597Q10.91755348,13.02199849,10.87652254,13.08340567Q10.83549154,13.14481282,10.80722892,13.21304482Q10.77896631,13.28127682,10.7645582,13.35371152Q10.75014997,13.426146217,10.75014997,13.5Q10.75014997,13.573853783,10.7645582,13.64628848Q10.77896631,13.71872318,10.80722892,13.78695518Q10.83549154,13.85518718,10.87652254,13.91659433Q10.91755348,13.97800151,10.96977597,14.03022403Q11.02199849,14.08244652,11.08340567,14.12347746Q11.14481282,14.16450846,11.21304482,14.19277108Q11.28127682,14.22103369,11.35371152,14.2354418Q11.426146217,14.24985003,11.5,14.24985003L11.5,14.25L12.5000004,14.25Q13.017752999999999,14.25,13.3838766,14.6161237Q13.75,14.9822472,13.75,15.4999999Q13.75,16.0177526,13.3838761,16.3838763Q13.0177524,16.75,12.5,16.75Z" fill-rule="evenodd" fill="#333333" fill-opacity="1" style="mix-blend-mode:passthrough"/></g></svg>