<svg xmlns="http://www.w3.org/2000/svg" xmlns:xlink="http://www.w3.org/1999/xlink" fill="none" version="1.1" width="24" height="24" viewBox="0 0 24 24"><defs><clipPath id="master_svg0_1041_22800"><rect x="-0.75" y="-0.75" width="25.5" height="25.5" rx="0"/></clipPath></defs><g clip-path="url(#master_svg0_1041_22800)"><path d="M22.000217,1.25000006L22,1.25000006L11.5,1.24999994Q11.42613145,1.25,11.35368226,1.26441103Q11.28123307,1.27882206,11.21298742,1.3070903999999999Q11.14474177,1.33535862,11.08332235,1.37639779Q11.02190286,1.4174369599999999,10.96966988,1.46966988Q10.91743696,1.52190286,10.87639779,1.58332232Q10.835358620000001,1.64474177,10.8070904,1.71298742Q10.77882206,1.78123307,10.76441097,1.85368226Q10.75,1.92613145,10.74999994,2L10.74999994,13.5Q10.75,13.573868,10.76441103,13.646317Q10.77882206,13.718765,10.8070904,13.787011Q10.835358620000001,13.855257,10.87639779,13.916677Q10.91743696,13.978096,10.96966988,14.030329Q11.02190286,14.082561,11.08332232,14.1236Q11.14474177,14.164639,11.21298742,14.192908Q11.28123307,14.221176,11.35368226,14.235588Q11.42613145,14.25,11.5,14.25L21.996651,14.25Q22.070505,14.25,22.142941,14.235594Q22.215377,14.221188,22.283611,14.192928Q22.351847,14.164671,22.41326,14.123646Q22.474671999999998,14.082621,22.526903,14.030406Q22.579134,13.97819,22.620176,13.91679Q22.661219,13.855389,22.689496,13.787162Q22.717775,13.718935,22.732202,13.646503Q22.74663,13.574072,22.746651999999997,13.500217L22.75,2.0002184076Q22.750044000000003,1.85103437,22.692993,1.71318963Q22.635942999999997,1.57534492,22.530484,1.46982503Q22.425026000000003,1.3643047799999999,22.287214,1.30717421Q22.149403,1.25004351,22.000217,1.25000006ZM21.2497816,2.75000006L12.25000006,2.75000006L12.25000006,12.75L21.246869099999998,12.75L21.2497816,2.75000006Z" fill-rule="evenodd" fill="#333333" fill-opacity="1" style="mix-blend-mode:passthrough"/><path d="M5.2525999593188475,12.499750137329102Q5.2525999593188475,12.425896354329101,5.267008189318847,12.3534616573291Q5.281416299318848,12.281026957329102,5.309678909318848,12.212794957329102Q5.337941529318847,12.144562957329102,5.3789725293188475,12.083155807329101Q5.420003469318848,12.021748627329101,5.472225959318847,11.969526107329102Q5.524448479318847,11.917303617329102,5.585855659318848,11.876272677329101Q5.647262809318848,11.835241677329101,5.715494809318848,11.806979057329102Q5.783726809318848,11.778716447329101,5.856161509318848,11.764308337329101Q5.928596206318848,11.749900107329102,6.002449989318848,11.749900107329102Q6.076303772318847,11.749900107329102,6.148738469318848,11.764308337329101Q6.221173169318847,11.778716447329101,6.289405169318847,11.806979057329102Q6.357637169318847,11.835241677329101,6.419044319318847,11.876272677329101Q6.480451499318848,11.917303617329102,6.532674019318848,11.969526107329102Q6.584896509318847,12.021748627329101,6.625927449318848,12.083155807329101Q6.666958449318848,12.144562957329102,6.695221069318848,12.212794957329102Q6.723483679318847,12.281026957329102,6.737891789318848,12.3534616573291Q6.752300019318848,12.425896354329101,6.752300019318848,12.499750137329102L6.752449989318848,12.499750137329102L6.752449989318848,17.9999008373291Q6.752449989318848,19.5301847373291,7.373152089318848,20.355503537329103Q8.045916289318848,21.2499008373291,9.328949689318847,21.2499008373291L15.502449989318848,21.2499008373291L15.502449989318848,21.250050537329102Q15.576304389318848,21.250050537329102,15.648737889318848,21.2644586373291Q15.721173289318848,21.2788658373291,15.789404889318847,21.3071279373291Q15.857636489318848,21.3353901373291,15.919043589318848,21.376421937329102Q15.980450589318847,21.4174537373291,16.032673989318848,21.4696760373291Q16.084894989318848,21.521898237329104,16.125925989318848,21.5833053373291Q16.166956989318848,21.6447124373291,16.195219989318847,21.7129449373291Q16.223482989318846,21.7811775373291,16.23789098931885,21.853611937329102Q16.252298989318845,21.9260463373291,16.25229998931885,21.9999008373291Q16.252298989318845,22.0737543373291,16.23789098931885,22.1461887373291Q16.223482989318846,22.2186241373291,16.195219989318847,22.286855737329102Q16.166956989318848,22.3550872373291,16.125925989318848,22.4164943373291Q16.084894989318848,22.477901437329102,16.032673989318848,22.5301251373291Q15.980450589318847,22.582346137329104,15.919043589318848,22.6233771373291Q15.857636489318848,22.6644081373291,15.789404889318847,22.6926711373291Q15.721173289318848,22.720934137329102,15.648737889318848,22.735342137329102Q15.576304389318848,22.7497501373291,15.502449989318848,22.7497511373291L15.502449989318848,22.749901137329104L9.328949689318847,22.749901137329104Q7.297233389318848,22.749901137329104,6.174347549318847,21.2570953373291Q5.252449989318848,20.0312910373291,5.252449989318848,17.9999008373291L5.252449989318848,12.499750137329102L5.2525999593188475,12.499750137329102Z" fill-rule="evenodd" fill="#333333" fill-opacity="1" style="mix-blend-mode:passthrough"/><path d="M6.0024524,13.559973237329102L9.4768653,17.030525637329102L9.476970699999999,17.030419837329102Q9.582420299999999,17.1357526373291,9.720137600000001,17.1927518373291Q9.8578539,17.249751137329103,10.0068998,17.249751137329103Q10.0807533,17.249751137329103,10.1531878,17.2353429373291Q10.2256222,17.220934437329102,10.2938538,17.1926717373291Q10.3620853,17.164408637329103,10.4234934,17.1233778373291Q10.4849005,17.082346937329103,10.5371237,17.030124637329102Q10.5893459,16.9779019373291,10.6303768,16.9164948373291Q10.6714077,16.8550872373291,10.6996708,16.786855737329102Q10.7279339,16.7186241373291,10.742342,16.646189237329104Q10.7567501,16.573754337329103,10.7567501,16.4999008373291Q10.7567501,16.3506379373291,10.6995907,16.212752837329102Q10.6424313,16.0748677373291,10.536829,15.969381837329102L10.5369349,15.969275937329101L6.5323353,11.969125327329103Q6.4801006,11.916949037329102,6.4186954,11.875959277329102Q6.3572903,11.834969637329102,6.2890711,11.806740107329102Q6.2208509,11.778510687329101,6.1484365,11.764125107329102Q6.0760221,11.7497395873291,6.0021925,11.749750197329101Q5.9283628,11.749760867329101,5.8559527,11.764167187329102Q5.783542199999999,11.778573577329102,5.7153311,11.806822597329102Q5.6471195000000005,11.835071747329101,5.585725500000001,11.876079087329101Q5.5243316,11.917086367329102,5.4721124,11.969277677329101L1.46981233,15.969428337329102L1.46991837,15.969534437329102Q1.36438489,16.0750112373291,1.30726743,16.212852937329103Q1.25014997,16.3506941373291,1.25014997,16.4999008373291Q1.25014997,16.573754337329103,1.2645582,16.646189237329104Q1.27896631,16.7186241373291,1.30722892,16.786855737329102Q1.33549154,16.8550872373291,1.3765225399999999,16.9164948373291Q1.41755348,16.9779019373291,1.4697759700000002,17.030124637329102Q1.52199849,17.082346937329103,1.5834056699999999,17.1233778373291Q1.64481282,17.164408637329103,1.71304482,17.1926717373291Q1.78127682,17.220934437329102,1.85371152,17.2353429373291Q1.9261462169999999,17.249751137329103,2,17.249751137329103Q2.14910209,17.249751137329103,2.28686213,17.192710837329102Q2.42462215,17.1356701373291,2.53008157,17.030267237329102L2.53018767,17.0303735373291L6.0024524,13.559973237329102Z" fill-rule="evenodd" fill="#333333" fill-opacity="1" style="mix-blend-mode:passthrough"/><path d="M15,10.25L18.5,10.25L18.5,10.24985003Q18.5738535,10.24985003,18.6462884,10.2354418Q18.718722800000002,10.22103369,18.7869549,10.19277108Q18.8551869,10.16450846,18.916594,10.12347746Q18.9780011,10.08244652,19.0302238,10.03022403Q19.0824461,9.97800151,19.123477,9.91659433Q19.1645083,9.85518718,19.192771,9.78695518Q19.221034,9.71872318,19.2354422,9.64628848Q19.2498503,9.573853783,19.2498503,9.5Q19.2498503,9.426146217,19.2354422,9.35371152Q19.221034,9.28127682,19.192771,9.21304482Q19.1645083,9.14481282,19.1234775,9.08340567Q19.0824461,9.02199849,19.0302238,8.96977597Q18.9780011,8.91755348,18.916594,8.87652254Q18.8551869,8.83549154,18.7869549,8.80722892Q18.718722800000002,8.77896631,18.6462882,8.7645582Q18.5738535,8.75014997,18.5,8.75014997L18.5,8.75L15,8.75L15,8.75014997Q14.926146217,8.75014997,14.85371152,8.7645582Q14.78127682,8.77896631,14.71304482,8.80722892Q14.64481282,8.83549154,14.58340567,8.87652254Q14.52199849,8.91755348,14.46977597,8.96977597Q14.41755348,9.02199849,14.37652254,9.08340567Q14.33549154,9.14481282,14.30722892,9.21304482Q14.27896631,9.28127682,14.2645582,9.35371152Q14.25014997,9.426146217,14.25014997,9.5Q14.25014997,9.573853783,14.2645582,9.64628848Q14.27896631,9.71872318,14.30722892,9.78695518Q14.33549154,9.85518718,14.37652254,9.91659433Q14.41755348,9.97800151,14.46977597,10.03022403Q14.52199849,10.08244652,14.58340567,10.12347746Q14.64481282,10.16450846,14.71304482,10.19277108Q14.78127682,10.22103369,14.85371152,10.2354418Q14.926146217,10.24985003,15,10.24985003L15,10.25Z" fill-rule="evenodd" fill="#333333" fill-opacity="1" style="mix-blend-mode:passthrough"/><path d="M15,6.75L18.5,6.75L18.5,6.74985003Q18.5738535,6.74985003,18.6462884,6.7354418Q18.718722800000002,6.72103369,18.7869549,6.69277108Q18.8551869,6.66450846,18.916594,6.62347746Q18.9780011,6.5824465199999995,19.0302238,6.53022403Q19.0824461,6.47800151,19.123477,6.41659433Q19.1645083,6.35518718,19.192771,6.28695518Q19.221034,6.21872318,19.2354422,6.14628848Q19.2498503,6.073853783,19.2498503,6Q19.2498503,5.926146217,19.2354422,5.85371152Q19.221034,5.78127682,19.192771,5.71304482Q19.1645083,5.64481282,19.1234775,5.58340567Q19.0824461,5.52199849,19.0302238,5.46977597Q18.9780011,5.4175534800000005,18.916594,5.37652254Q18.8551869,5.33549154,18.7869549,5.30722892Q18.718722800000002,5.27896631,18.6462882,5.2645582Q18.5738535,5.25014997,18.5,5.25014997L18.5,5.25L15,5.25L15,5.25014997Q14.926146217,5.25014997,14.85371152,5.2645582Q14.78127682,5.27896631,14.71304482,5.30722892Q14.64481282,5.33549154,14.58340567,5.37652254Q14.52199849,5.4175534800000005,14.46977597,5.46977597Q14.41755348,5.52199849,14.37652254,5.58340567Q14.33549154,5.64481282,14.30722892,5.71304482Q14.27896631,5.78127682,14.2645582,5.85371152Q14.25014997,5.926146217,14.25014997,6Q14.25014997,6.073853783,14.2645582,6.14628848Q14.27896631,6.21872318,14.30722892,6.28695518Q14.33549154,6.35518718,14.37652254,6.41659433Q14.41755348,6.47800151,14.46977597,6.53022403Q14.52199849,6.5824465199999995,14.58340567,6.62347746Q14.64481282,6.66450846,14.71304482,6.69277108Q14.78127682,6.72103369,14.85371152,6.7354418Q14.926146217,6.74985003,15,6.74985003L15,6.75Z" fill-rule="evenodd" fill="#333333" fill-opacity="1" style="mix-blend-mode:passthrough"/></g></svg>