<svg xmlns="http://www.w3.org/2000/svg" xmlns:xlink="http://www.w3.org/1999/xlink" fill="none" version="1.1" width="24" height="24" viewBox="0 0 24 24"><defs><clipPath id="master_svg0_1041_22827"><rect x="-0.75" y="-0.75" width="25.5" height="25.5" rx="0"/></clipPath></defs><g clip-path="url(#master_svg0_1041_22827)"><path d="M5,22.75L11,22.75L11,22.749849Q11.0738535,22.749847,11.1462874,22.735439Q11.2187223,22.721031,11.286954399999999,22.692768Q11.3551865,22.664505,11.416593599999999,22.623474Q11.4780006,22.582443,11.5302238,22.530222Q11.5824461,22.477999,11.623477000000001,22.416592Q11.6645079,22.355185,11.69277,22.286953Q11.7210331,22.218721,11.7354412,22.146286Q11.7498498,22.073853,11.7498503,22Q11.7498498,21.926146,11.735441699999999,21.85371Q11.7210331,21.781275,11.6927705,21.713043Q11.6645079,21.64481,11.623477000000001,21.583405Q11.5824456,21.521997,11.5302234,21.469776Q11.4780006,21.417553,11.4165931,21.376522Q11.3551865,21.335491,11.286954399999999,21.307228Q11.2187223,21.278965,11.1462879,21.264559Q11.0738535,21.250151,11,21.250151L11,21.25L5,21.25Q4.75,21.25,4.75,21L4.75,3Q4.75,2.75,5,2.75L15.165978,2.75L19.25,7.2878013L19.25,11.5L19.250149999999998,11.5Q19.250149,11.5738544,19.264557,11.6462879Q19.278965,11.7187233,19.307226999999997,11.7869549Q19.335489000000003,11.8551865,19.37652,11.9165936Q19.417551,11.9780006,19.469774,12.030224Q19.521997,12.082445,19.583404,12.123476Q19.644812,12.164507,19.713043,12.19277Q19.781275,12.221033,19.85371,12.235441Q19.926146,12.249849,20,12.24985Q20.073853,12.249849,20.146288,12.235441Q20.218721,12.221033,20.286953,12.19277Q20.355186,12.164507,20.416594,12.123476Q20.478001,12.082445,20.530224,12.030224Q20.582447,11.9780006,20.623476,11.9165936Q20.664507,11.8551865,20.69277,11.7869549Q20.721031,11.7187233,20.735439,11.6462879Q20.749847,11.5738544,20.749849,11.5L20.75,11.5L20.75,7Q20.75,6.8610392,20.700216,6.7313023Q20.650431,6.6015654,20.55747,6.4982767L16.057470000000002,1.49827647Q15.950796,1.37974989,15.805129,1.31487495Q15.659462,1.25,15.5,1.25L5,1.25Q3.25,1.25,3.25,3L3.25,21Q3.25,22.75,5,22.75Z" fill-rule="evenodd" fill="#333333" fill-opacity="1" style="mix-blend-mode:passthrough"/><path d="M13.25,21.9999995Q13.25,22.073867800000002,13.26441109,22.1463165Q13.27882212,22.2187662,13.3070904,22.2870116Q13.33535868,22.355257,13.37639785,22.416677Q13.41743702,22.4780965,13.46966994,22.5303297Q13.52190292,22.5825624,13.58332238,22.6236014Q13.64474183,22.6646404,13.71298748,22.692908799999998Q13.78123312,22.7211771,13.85368228,22.7355881Q13.926131457,22.7499995,14,22.75L16,22.75Q16.1491842,22.7499995,16.2870123,22.6929092Q16.424840500000002,22.6358185,16.530329899999998,22.5303297L21.5303297,17.530329899999998Q21.5825624,17.478096999999998,21.6236014,17.4166775Q21.6646404,17.355258,21.6929083,17.2870121Q21.7211766,17.2187667,21.7355876,17.1463175Q21.749999,17.0738683,21.749999,17Q21.749999,16.9261314,21.7355876,16.8536822Q21.7211771,16.7812328,21.692908799999998,16.7129872Q21.6646404,16.6447417,21.6236019,16.5833223Q21.5825624,16.5219028,21.5303297,16.4696699L19.5303297,14.46966994Q19.42484,14.3641808,19.2870121,14.3070904Q19.1491838,14.25,19,14.24999994Q18.8508158,14.24999988,18.7129869,14.30709028Q18.5751591,14.364180619999999,18.4696698,14.46966988L13.46966994,19.4696698Q13.3641808,19.5751586,13.3070904,19.7129869Q13.25000012,19.8508153,13.25000006,20L13.25,21.9999995ZM14.75,21.2499995L15.689339799999999,21.2499995L19.9393392,16.9999999L18.9999995,16.06066L14.75,20.3106599L14.75,21.2499995Z" fill-rule="evenodd" fill="#333333" fill-opacity="1" style="mix-blend-mode:passthrough"/><path d="M14.25014997,2Q14.25014997,1.9261462169999999,14.2645582,1.85371152Q14.27896631,1.78127682,14.30722892,1.71304482Q14.33549154,1.64481282,14.37652254,1.5834056699999999Q14.41755348,1.52199849,14.46977597,1.4697759700000002Q14.52199849,1.41755348,14.58340567,1.3765225399999999Q14.64481282,1.33549154,14.71304482,1.30722892Q14.78127682,1.27896631,14.85371152,1.2645582Q14.926146217,1.25014997,15,1.25014997Q15.073853783,1.25014997,15.14628848,1.2645582Q15.21872318,1.27896631,15.28695518,1.30722892Q15.35518718,1.33549154,15.41659433,1.3765225399999999Q15.47800151,1.41755348,15.53022403,1.4697759700000002Q15.58244652,1.52199849,15.62347746,1.5834056699999999Q15.66450846,1.64481282,15.69277108,1.71304482Q15.72103369,1.78127682,15.7354418,1.85371152Q15.74985003,1.9261462169999999,15.74985003,2L15.75,2L15.75,6.25L20,6.25L20,6.2501497Q20.0738535,6.2501497,20.1462879,6.2645578Q20.2187223,6.278966,20.286954899999998,6.3072286Q20.355186500000002,6.3354912,20.4165936,6.3765221Q20.4780006,6.4175529,20.5302238,6.4697757Q20.5824461,6.5219984,20.623477,6.5834055Q20.6645079,6.6448126,20.692771,6.7130442Q20.7210336,6.7812767,20.7354422,6.8537111Q20.7498503,6.9261465,20.7498503,7Q20.7498503,7.0738535,20.7354417,7.1462879Q20.7210331,7.2187223,20.6927705,7.2869549Q20.6645079,7.3551865,20.623477,7.4165936Q20.5824461,7.4780006,20.5302238,7.5302238Q20.4780006,7.5824461,20.4165936,7.623477Q20.355186500000002,7.6645079,20.286954899999998,7.692771Q20.2187223,7.7210336,20.1462879,7.7354422Q20.0738535,7.7498503,20,7.7498503L20,7.75L15,7.75Q14.926131457,7.75,14.85368228,7.735589Q14.78123312,7.7211781,14.71298748,7.6929097Q14.64474183,7.6646414,14.58332238,7.6236019Q14.52190292,7.5825624,14.46966994,7.5303297Q14.41743702,7.4780965,14.37639785,7.416677Q14.33535868,7.3552575,14.3070904,7.2870121Q14.27882212,7.2187662,14.26441109,7.1463175Q14.25,7.0738688,14.25,7L14.25,2L14.25014997,2Z" fill-rule="evenodd" fill="#333333" fill-opacity="1" style="mix-blend-mode:passthrough"/></g></svg>