<svg xmlns="http://www.w3.org/2000/svg" xmlns:xlink="http://www.w3.org/1999/xlink" fill="none" version="1.1" width="24" height="24" viewBox="0 0 24 24"><defs><clipPath id="master_svg0_1041_22808"><rect x="-0.75" y="-0.75" width="25.5" height="25.5" rx="0"/></clipPath></defs><g clip-path="url(#master_svg0_1041_22808)"><path d="M1.39890224,11.5514665Q1.3628830299999999,11.5997381,1.3350284700000001,11.6531382Q1.30717397,11.7065382,1.28819799,11.7636986Q1.2692219,11.8208599,1.25961077,11.8803163Q1.24999964,11.939772600000001,1.2499997600000001,12.000000499999999Q1.24999964,12.0602293,1.25961089,12.1196856Q1.26922214,12.179141999999999,1.28819835,12.2363024Q1.3071743200000001,12.2934637,1.3350289499999999,12.3468637Q1.3628835700000002,12.400263800000001,1.39890289,12.448534Q2.57173514,14.0202904,4.4503081,15.577425Q8.277795300000001,18.75,12,18.75Q15.722204,18.75,19.549692,15.577425Q21.428265,14.0202904,22.601097,12.448533099999999Q22.637119,12.4002628,22.664972,12.3468628Q22.692827,12.2934628,22.711802,12.2363014Q22.73078,12.179141000000001,22.740391,12.1196852Q22.750002,12.0602288,22.75,12Q22.750002,11.939772600000001,22.740391,11.8803158Q22.73078,11.8208599,22.711802,11.7636986Q22.692827,11.7065382,22.664974,11.6531382Q22.637119,11.5997381,22.601097,11.5514665Q21.428265,9.9797101,19.549694,8.422575Q15.722208,5.25000018,12.000005,5.25Q8.278537799999999,5.25,4.4517436,8.4213846Q2.57335222,9.9780669,1.3989748400000002,11.5513692L1.39890224,11.5514665ZM2.95217633,12.0000491Q3.9399837,13.2061162,5.4075546,14.422575Q8.8186431,17.25,12,17.25Q15.181356,17.25,18.592445,14.422575Q20.060047,13.2060905,21.047865,12.000000499999999Q20.060049,10.7939081,18.592447,9.577425Q15.181359,6.75,12.000005,6.75Q8.819303999999999,6.75,5.4088802000000005,9.5763259Q3.9411620999999997,10.7926702,2.95217633,12.0000491Z" fill-rule="evenodd" fill="#333333" fill-opacity="1" style="mix-blend-mode:passthrough"/><path d="M9.70190731,9.70190734Q8.75000006,10.6538146,8.75,12Q8.75,13.3461854,9.70190738,14.2980928Q10.6538146,15.25,12,15.25Q13.3461854,15.25,14.2980928,14.2980924Q15.25,13.346185,15.25,11.9999988Q15.25,10.6538146,14.2980924,9.70190719Q13.3461847,8.75,11.9999988,8.75Q10.6538147,8.75,9.70190731,9.70190734ZM10.7625676,13.2374325Q10.25,12.724864499999999,10.25,12Q10.25,11.275135,10.7625675,10.7625676Q11.275135,10.25,11.9999988,10.25Q12.724864499999999,10.25,13.2374325,10.7625676Q13.75,11.2751353,13.75,11.9999988Q13.75,12.724864199999999,13.2374325,13.2374325Q12.724864499999999,13.75,12,13.75Q11.2751354,13.75,10.7625676,13.2374325Z" fill-rule="evenodd" fill="#333333" fill-opacity="1" style="mix-blend-mode:passthrough"/></g></svg>